<svg width="24" height="24" viewBox="0 0 24 24" fill="none" xmlns="http://www.w3.org/2000/svg">
  <path d="M14.8858 20.915C15.0085 20.8674 15.1207 20.7961 15.2158 20.705L17.7158 18.205C17.9041 18.0167 18.0099 17.7613 18.0099 17.495C18.0099 17.2287 17.9041 16.9733 17.7158 16.785C17.5275 16.5967 17.2721 16.4909 17.0058 16.4909C16.7395 16.4909 16.4841 16.5967 16.2958 16.785L15.5058 17.585L15.5058 5.99501C15.5058 5.7298 15.4004 5.47544 15.2129 5.28791C15.0254 5.10037 14.771 4.99501 14.5058 4.99501C14.2406 4.99501 13.9862 5.10037 13.7987 5.28791C13.6112 5.47544 13.5058 5.7298 13.5058 5.99501L13.5058 17.585L12.7158 16.785C12.6228 16.6913 12.5122 16.6169 12.3904 16.5661C12.2685 16.5154 12.1378 16.4892 12.0058 16.4892C11.8738 16.4892 11.7431 16.5154 11.6212 16.5661C11.4994 16.6169 11.3888 16.6913 11.2958 16.785C11.2021 16.878 11.1277 16.9886 11.0769 17.1104C11.0261 17.2323 11 17.363 11 17.495C11 17.627 11.0261 17.7577 11.0769 17.8796C11.1277 18.0015 11.2021 18.112 11.2958 18.205L13.7958 20.705C13.8909 20.7961 14.003 20.8674 14.1258 20.915C14.3693 21.015 14.6423 21.015 14.8858 20.915ZM9.5058 17.995L9.5058 6.40501L10.2958 7.20501C10.4841 7.39332 10.7395 7.49911 11.0058 7.49911C11.2721 7.49911 11.5275 7.39332 11.7158 7.20501C11.9041 7.01671 12.0099 6.76131 12.0099 6.49501C12.0099 6.22871 11.9041 5.97332 11.7158 5.78501L9.2158 3.28501C9.12069 3.19397 9.00855 3.12261 8.8858 3.07501C8.64233 2.975 8.36926 2.975 8.1258 3.07501C8.00305 3.12261 7.8909 3.19397 7.7958 3.28501L5.2958 5.78501C5.20207 5.87798 5.12767 5.98858 5.0769 6.11044C5.02614 6.2323 5 6.363 5 6.49501C5 6.62702 5.02614 6.75773 5.0769 6.87959C5.12767 7.00145 5.20207 7.11205 5.2958 7.20501C5.38876 7.29874 5.49936 7.37314 5.62122 7.4239C5.74308 7.47467 5.87378 7.50081 6.0058 7.50081C6.13781 7.50081 6.26851 7.47467 6.39037 7.4239C6.51223 7.37314 6.62283 7.29874 6.7158 7.20501L7.5058 6.40501L7.5058 17.995C7.5058 18.2602 7.61115 18.5146 7.79869 18.7021C7.98623 18.8897 8.24058 18.995 8.5058 18.995C8.77101 18.995 9.02537 18.8897 9.2129 18.7021C9.40044 18.5146 9.5058 18.2602 9.5058 17.995Z" fill="#121212"/>
</svg>
