<svg width="16" height="16" viewBox="0 0 16 16" fill="none" xmlns="http://www.w3.org/2000/svg">
<g id="ETH light">
<rect width="16" height="16" rx="2" fill="#DFFE00"/>
<g id="Vector" opacity="0.7">
<path d="M7.99886 2L7.91548 2.27344V10.2081L7.99886 10.2884L11.8159 8.1113L7.99886 2Z" fill="#495057"/>
<path d="M7.99886 2L4.18182 8.1113L7.99886 10.2884L7.99888 6.4372L7.99886 2Z" fill="#6C757D"/>
<path d="M7.99886 10.9858L7.95188 11.0411V13.8676L7.99886 14L11.8182 8.80977L7.99886 10.9858Z" fill="#495057"/>
<path d="M7.99886 14V10.9858L4.18182 8.80973L7.99886 14Z" fill="#6C757D"/>
<path d="M7.99886 10.2884L11.8159 8.1113L7.99888 6.4372L7.99886 10.2884Z" fill="#212529"/>
<path d="M4.18182 8.1113L7.99886 10.2884L7.99888 6.4372L4.18182 8.1113Z" fill="#343A40"/>
</g>
</g>
</svg>
