<svg xmlns="http://www.w3.org/2000/svg" width="16" height="16" viewBox="0 0 16 16" fill="none">
<rect width="16" height="16" rx="2" fill="#627EEA"/>
<g opacity="0.8">
<path d="M7.99886 2L7.91548 2.27344V10.2081L7.99886 10.2884L11.8159 8.1113L7.99886 2Z" fill="#DEE2E6"/>
<path d="M7.99886 2L4.18182 8.1113L7.99886 10.2884L7.99888 6.4372L7.99886 2Z" fill="white"/>
<path d="M7.99886 10.9858L7.95188 11.0411V13.8676L7.99886 14L11.8182 8.80977L7.99886 10.9858Z" fill="#DEE2E6"/>
<path d="M7.99886 14V10.9858L4.18182 8.80973L7.99886 14Z" fill="white"/>
<path d="M7.99886 10.2884L11.8159 8.1113L7.99888 6.4372L7.99886 10.2884Z" fill="#ADB5BD"/>
<path d="M4.18182 8.1113L7.99886 10.2884L7.99888 6.4372L4.18182 8.1113Z" fill="#CED4DA"/>
</g>
</svg>